<?xml version="1.0" encoding="UTF-8"?>
<svg id="Group_7" data-name="Group 7" xmlns="http://www.w3.org/2000/svg" xmlns:xlink="http://www.w3.org/1999/xlink" viewBox="0 0 480 192">
  <defs>
    <style>
      .cls-1 {
        fill: #0c2542;
      }

      .cls-2 {
        fill: url(#linear-gradient-2);
      }

      .cls-3 {
        fill: url(#linear-gradient);
      }
    </style>
    <linearGradient id="linear-gradient" x1="150.72" y1="73.99" x2="150.96" y2="73.99" gradientUnits="userSpaceOnUse">
      <stop offset=".01" stop-color="#0992c2"/>
      <stop offset="1" stop-color="#5b99c3"/>
    </linearGradient>
    <linearGradient id="linear-gradient-2" x1="228.49" y1="74.29" x2="261.78" y2="74.29" gradientUnits="userSpaceOnUse">
      <stop offset="0" stop-color="#bf092f"/>
      <stop offset="1" stop-color="#911220"/>
    </linearGradient>
  </defs>
  <g id="_עסק_שיוצר_חופש" data-name="עסק שיוצר חופש">
    <g>
      <g>
        <path class="cls-3" d="M226.59,50.86c0-2.13,0-4.26-.19-6.39-.07-.75-.16-1.5-.46-2.2-1.13-2.62-3.04-4.13-5.37-4.76-2.89-.78-5.46.3-7.65,2.6-.18.18-.31.19-.5.08-.21-.12-3.15-.15-5.64,1.08-1.78.88-3.28,2.3-4.13,3.52-.16.22-.24.33-.48.39-1.24.32-2.72,1.08-3.78,2.21-1.37,1.45-2.23,3.31-2.56,5.48-.08.51-.26,1.04-.74,1.15-1.31.3-2.95,1.69-3.68,2.99-.91,1.63-1.04,3.57-.73,5.59.09.56-.13.94-.46,1.34-.33.4-.59.85-.91,1.26-1.54,1.96-2.28,4.83-1.51,7.57.34,1.22.68,2.46.13,3.75-.09.22-.15.47-.18.72-.49,3.66.32,6.85,2.45,9.58.31.4.65.79.83,1.29.2.56.14,1.24.23,1.85.39,2.64,1.65,5.07,3.42,6.73.84.79,1.79,1.41,2.78,1.89.31.15.49.37.65.75.53,1.22,2.32,3.89,4.28,5.16,1.21.78,2.32,1.48,3.65,1.59.46.04.82.16,1.13.56.75.95,1.64,1.64,2.65,2.16,2.97,1.52,6.63,2.14,8.71,1.82,1.09-.17,2.96-.8,4.06-1.79,2.72-2.47,3.94-5.94,3.84-10.02.01-.15.04-.3.04-.45.05-9.1-.04-18.2.1-27.29.1-6.74.02-13.48.03-20.21M223.39,51.7c0,1.1-.92,1.89-1.8,1.54-1.86-.72-3.41-2.39-4.04-4.68-.65-2.38-3.84-1.36-3.19,1.03,1.01,3.69,3.63,6.58,6.74,7.58,1.33.43,2.27,1.83,2.27,3.45,0,1.29,0,.19,0,1.56,0,1.24-.84,2.24-1.89,2.31-1.53.1-3.05.81-4.3,1.88-2.39,2.05-4.57,5.6-7.2,7.28-1.88,1.2-4.01,2.1-5.69-.17-.88-1.2-2.14-2.93-2.88-4.24-.79-1.4-1.86-2.58-3.31-2.89-2.08-.46-2.97,3.3-.88,3.75.01,0,.02,0,.03,0,1.01.24,1.22,1.81.36,2.49-1.81,1.43-2.97,3.98-2.75,6.6.09,1.04.7,1.95,1.65,1.95.82,0,1.74-.9,1.65-1.95-.19-2.15.87-3.14,1.69-3.6.47-.27,1.03-.19,1.45.19.2.18.41.36.63.55,1.36,1.18,3.01,1.49,4.62,2.19,1.53.66,2.61,3.27,3.48,3.07.76-.17,1.33-3.78,1.99-4.86,3.78-6.22,7.13-7.77,9.19-8.03,1.15-.14,2.14.94,2.14,2.3,0,4.42,0,11.12-.01,14.58,0,1.72-1.91,2.42-2.71.99,0-.01-.02-.03-.02-.04-.51-1-.71-3.16-.55-3.97.46-2.28-2.52-3.26-2.99-.97-.24,1.2-.27,2.39-.12,3.51.14,1.04-.29,2.06-1.09,2.52-1.44.83-3.3.96-4.75.83-2.07-.19-4.03-1.15-5.64-2.65-.43-.58-.92-1.1-1.48-1.55-1.49-1.21-3.04,1.4-1.88,2.87.43.54.88,1.03,1.36,1.48,1.1,1.78,1.04,4.21-.09,6.13-1.14,1.93,1.54,3.76,2.67,1.84.56-.94.93-1.95,1.13-2.99.24-1.22,1.29-1.96,2.34-1.73.62.14,1.25.23,1.88.27,2.04.13,4.49-.31,6.39-1.59.61-.41,1.36-.34,1.92.17.74.68,1.59,1.2,2.52,1.52.63.21,1.08.87,1.09,1.65.03,1.77.07,3.62-.26,5.43-.89,4.77-4.83,7.93-8.87,7.13-1.1-.22-2.12-.62-3.07-1.19-.79-.47-1.07-1.62-.66-2.54.33-.73.71-1.43,1.24-1.96.65-.64,1.82-.68,3-.27,1.08.38,1.45,1.75,1.33,2.53-.15.97.22,1.97,1.08,2.25.75.24,1.76-.3,1.91-1.28.11-.71.13-1.42.06-2.11-.06-.59.15-1.16.56-1.5.64-.51,1.16-1.22,1.48-2.05.35-.9.21-1.95-.56-2.5-.66-.47-1.77-.24-2.12.65-.5,1.29-1.31,1.27-2.32.76-1.25-.63-2.37-1.15-3.76-.85-2.09.45-3.46,2.26-4.45,4.32-.26.54-.72.9-1.25.98h0c-2.23.32-3.98-.76-5.4-2.7-.58-.8-1-1.7-1.15-2.77-.07-.52-.28-.88-.8-1.04-2.77-.84-4.5-2.96-5.25-6.2-.15-.65-.18-1.33-.08-2,.08-.62-.13-1-.58-1.37-1.15-.95-2-2.22-2.46-3.8-.62-2.13-.59-4.23.33-6.25.13-.28.19-.58.09-.87-.23-.68-.52-1.37-.66-2.1-.15-.79-.08-1.66-.03-2.47,0-.12.03-.31.05-.42.04-.21.09-.42.14-.62.14-.49.33-.95.56-1.39.49-.91,1.2-1.55,1.97-2.11.33-.23.21-.56.19-.86-.11-1.58.06-3.08.71-4.5.7-1.52,1.82-2.44,3.09-3.13.47-.26.67-.57.67-1.21.02-2.75,1.27-4.64,3.24-5.89.58-.37,1.27-.64,1.96-.69,3.06-.24,1.44,2.6,1.49,4.3.02.58.29,1.08.58,1.56.2.32.11.76-.16.98-1.91,1.51-3.13,4.11-3.05,6.92.07,2.5,3.38,2.51,3.3,0-.05-1.76.65-2.84,1.35-3.47.66-.59,1.57-.62,2.24-.05.59.5,1.21.96,1.82,1.41,1.81,1.34,3.47-2.03,1.67-3.36-1.68-1.25-3.66-2.61-4.5-4.84-.17-.45-.17-1.14-.06-1.93.47-3.27,2.58-5.84,5.29-6.77.31-.11.65-.27,1.02-.49.12-.07.23-.17.35-.24.18-.11.35-.22.53-.32.99-.52,2.05-.73,3.19-.68,1.03.04,1.93.46,2.79.98.74.45,1.35,1.25,1.71,2.15.36.89.58,1.85.57,2.88,0,.59-.01,1.79-.01,3.42"/>
        <path class="cls-2" d="M243.74,72.79s.03-.02.04-.04c0,.04,0,.09,0,.13-.01-.03-.03-.06-.03-.1M260.72,85.94l1.02-3.8c.16-.59-.19-1.19-.78-1.35l-3.12-.84c-.94-.25-1.55-1.15-1.44-2.12.12-1.12.18-2.25.18-3.38s-.07-2.33-.19-3.47c-.11-.96.5-1.86,1.43-2.12l3.12-.85c.59-.16.93-.76.77-1.35l-1.03-3.8c-.16-.59-.76-.93-1.35-.77l-3.13.85c-.94.25-1.91-.21-2.31-1.1-.94-2.1-2.11-4.08-3.47-5.91-.58-.78-.51-1.86.17-2.56l2.43-2.34c.43-.43.42-1.13-.01-1.56l-2.71-2.87c-.43-.43-1.13-.42-1.56.01l-2.53,2.45c-.68.69-1.76.78-2.55.21-1.85-1.33-3.85-2.46-5.96-3.37-.89-.38-1.38-1.35-1.14-2.29l.88-3.69c.15-.59-.21-1.19-.8-1.34l-3.8-1.04c-.59-.15-1.19.21-1.34.8l-.89,3.75c-.24.95-1.14,1.58-2.11,1.49h-.02s0,7.47,0,7.47c11.63,1.43,20.66,11.38,20.66,23.39,0,5.91-2.2,11.56-6.18,15.91-3.81,4.16-8.93,6.79-14.47,7.47v7.48h0s.08,0,.11-.01c.97-.09,1.86.52,2.1,1.46l.84,3.46c.15.59.75.94,1.34.79l3.81-.98c.59-.15.94-.75.79-1.34l-.84-3.45c-.24-.94.24-1.91,1.13-2.29,2.1-.9,4.1-2.03,5.96-3.38.79-.57,1.87-.49,2.55.21l2.27,2.3c.43.43,1.12.44,1.56,0l2.8-2.77c.43-.43.44-1.12,0-1.56l-2.28-2.3c-.68-.69-.76-1.77-.18-2.55,1.37-1.85,2.53-3.84,3.45-5.92.39-.89,1.37-1.36,2.31-1.11l3.12.84c.59.16,1.19-.19,1.35-.78M243.78,74.44c0-8.81-6.28-16.36-14.93-17.96l-.36-.07v3.99c6.61,1.39,11.36,7.23,11.36,14.03s-4.75,12.63-11.36,14.03v3.99l.36-.07c8.65-1.59,14.93-9.15,14.93-17.95"/>
      </g>
      <g>
        <g>
          <path class="cls-1" d="M32.86,52.87c0-.92.71-1.63,1.63-1.63h13.14c.92,0,1.63.71,1.63,1.63v25.67c0,.92-.71,1.63-1.63,1.63h-13.14c-.92,0-1.63-.71-1.63-1.63v-25.67Z"/>
          <path class="cls-1" d="M97.7,65.57v34.11c0,.92-.71,1.63-1.63,1.63h-13.14c-.92,0-1.56-.71-1.56-1.63v-28.37c0-3.55-1.92-4.33-3.41-4.33h-9.66v32.7c0,.92-.71,1.63-1.63,1.63h-13.14c-.92,0-1.63-.71-1.63-1.63v-46.81c0-.92.71-1.63,1.63-1.63h29.9c8.59,0,14.28,6.95,14.28,14.33Z"/>
          <path class="cls-1" d="M100.32,52.87c0-.92.71-1.63,1.63-1.63h13.14c.92,0,1.63.71,1.63,1.63v46.81c0,.92-.71,1.63-1.63,1.63h-13.14c-.92,0-1.63-.71-1.63-1.63v-46.81Z"/>
          <path class="cls-1" d="M119.57,52.87c0-.92.71-1.63,1.63-1.63h13.14c.92,0,1.63.71,1.63,1.63v46.81c0,.92-.71,1.63-1.63,1.63h-13.14c-.92,0-1.63-.71-1.63-1.63v-46.81Z"/>
          <path class="cls-1" d="M138.1,52.87c0-.92.71-1.63,1.63-1.63h21.95c10.01,0,16.41,4.82,16.41,17.16v31.28c0,.92-.71,1.63-1.63,1.63h-13.14c-.92,0-1.56-.71-1.56-1.63v-28.37c0-3.55-1.92-4.33-3.41-4.33h-18.39c-.92,0-1.85-.99-1.85-1.92v-12.2Z"/>
          <path class="cls-1" d="M312.85,60.04c0,1.35-.43,3.26-1.07,5.32l-10.8,34.18c-.36.99-1.21,1.77-2.27,1.77h-13.85c-.92,0-1.56-.71-1.56-1.63,0-.14,0-.36.07-.5l.07-.14,10.3-31.77c.07-.14,0-.28-.14-.28h-22.09c-.92,0-1.63-.71-1.63-1.63v-22.77c0-.92.71-1.63,1.63-1.63h12.93c.92,0,1.63.71,1.63,1.63v8.65l17.76-.07c4.97,0,9.02,3.55,9.02,8.87Z"/>
          <path class="cls-1" d="M314.48,52.87c0-.92.71-1.63,1.63-1.63h13.14c.92,0,1.63.71,1.63,1.63v25.67c0,.92-.71,1.63-1.63,1.63h-13.14c-.92,0-1.63-.71-1.63-1.63v-25.67Z"/>
          <path class="cls-1" d="M333.3,52.87c0-.92.71-1.63,1.63-1.63h13.14c.92,0,1.63.71,1.63,1.63v25.67c0,.92-.71,1.63-1.63,1.63h-13.14c-.92,0-1.63-.71-1.63-1.63v-25.67Z"/>
          <path class="cls-1" d="M352.26,52.87c0-.92.71-1.63,1.63-1.63h36.43c5.11,0,9.52,3.76,9.52,9.43,0,1.06-.21,2.84-.5,3.97l-9.3,35.18c-.21.71-.85,1.49-1.7,1.49h-13.78c-.92,0-1.42-.57-1.42-1.49v-.28l8.45-32.06c.07-.28,0-.5-.28-.5h-27.41c-.92,0-1.63-.71-1.63-1.63v-12.48ZM352.26,75.22c0-.92.71-1.63,1.63-1.63h13.14c.92,0,1.63.71,1.63,1.63v36.88c0,.92-.71,1.63-1.63,1.63h-13.14c-.92,0-1.63-.71-1.63-1.63v-36.88Z"/>
          <path class="cls-1" d="M447.14,52.95v29.5c0,12.77-6.96,19.5-18.39,19.5h-5.89c-6.11,0-11.72-.85-16.26-4.82-3.48-3.05-4.9-8.44-4.97-14.96l-.28-29.29c0-.92.71-1.63,1.63-1.63h42.26c1.28,0,1.92.64,1.92,1.7ZM431.02,81.95l-.14-15.18h-13l.21,14.47c.07,4.4,2.34,5.39,6.18,5.39h1.99c2.7,0,4.76-1.13,4.76-4.68Z"/>
        </g>
        <g>
          <path class="cls-1" d="M169,136.71v8.7c0,3.76-2.11,5.65-5.6,5.65h-10.57c-.34,0-.55-.17-.55-.55l-.06-13.81c0-.27.21-.48.48-.48h2.23c.27,0,.48.21.48.48v11.33h3.58v-11.33c0-.27.21-.48.48-.48h2.15c.27,0,.48.21.48.48v11.33h1.22c1.39,0,2.48-.67,2.48-2.9v-8.43c0-.27.21-.48.48-.48h2.21c.27,0,.48.21.48.48Z"/>
          <path class="cls-1" d="M184.17,141.58v3.68c0,3.78-2.04,5.8-5.24,5.8h-6.23c-.27,0-.48-.21-.48-.48v-2.12c0-.27.21-.48.48-.48h5.69c1.62,0,2.55-.82,2.55-2.86l-.02-3.17c-.02-1.95-1.12-2.73-2.51-2.73h-2.97v4.58c0,.27-.19.48-.46.48h-2.3c-.27,0-.48-.21-.48-.48v-7.08c0-.27.21-.48.48-.48h6.3c3.07,0,5.2,1.58,5.2,5.36Z"/>
          <path class="cls-1" d="M187.03,136.71c0-.27.21-.48.48-.48h2.3c.27,0,.48.21.48.48v13.87c0,.27-.21.48-.48.48h-2.3c-.27,0-.48-.21-.48-.48v-13.87Z"/>
          <path class="cls-1" d="M206.29,140.89v9.69c0,.27-.21.48-.48.48h-2.3c-.27,0-.46-.21-.46-.48v-8.81c0-1.6-.86-2.44-1.94-2.44h-4.3v11.24c0,.27-.21.48-.48.48h-2.3c-.27,0-.48-.21-.48-.48v-13.87c0-.27.21-.48.48-.48h7.92c2.78,0,4.34,2.14,4.34,4.67Z"/>
          <path class="cls-1" d="M215.42,136.71c0-.27.23-.48.5-.48h6.17c2.99,0,4.65,1.83,4.65,5.09v9.27c0,.27-.21.48-.48.48h-2.3c-.27,0-.46-.21-.46-.48v-8.81c0-1.6-.86-2.44-1.94-2.44h-5.62c-.27,0-.53-.25-.53-.53v-2.1Z"/>
          <path class="cls-1" d="M239.57,140.11c-.38.5-.51,1.37-.44,2.88.06,1.7.04,2.19.27,2.5l1.85,2.73c.23.36.27.53.27.86v1.43c0,.34-.21.55-.53.55h-11.1c-.27,0-.48-.21-.48-.48v-2.08c0-.27.21-.5.48-.5h7.5l-5.26-7.02c-.78-1.03-1.35-1.47-1.94-1.47h-.38c-.27,0-.48-.25-.48-.53v-2.21c0-.27.21-.55.5-.55h1.33c1.2,0,2,.78,2.91,2.04l3.18,4.35.06-.06c-.17-.23-.36-.76-.36-1.3v-1.26c-.02-.84.13-1.66.55-2.31.59-.92,1.47-1.41,2.59-1.41h.97c.27,0,.51.23.51.5v2.14c0,.34-.08.53-.36.53h-.27c-.27,0-.93.04-1.37.67Z"/>
          <path class="cls-1" d="M244.3,136.71c0-.27.21-.48.48-.48h2.3c.27,0,.48.21.48.48v13.87c0,.27-.21.48-.48.48h-2.3c-.27,0-.48-.21-.48-.48v-13.87Z"/>
          <path class="cls-1" d="M250.74,136.71c0-.27.21-.48.48-.48h2.3c.27,0,.48.21.48.48v7.61c0,.27-.21.48-.48.48h-2.3c-.27,0-.48-.21-.48-.48v-7.61Z"/>
          <path class="cls-1" d="M273.97,136.71v8.7c0,3.76-2.11,5.65-5.6,5.65h-10.57c-.34,0-.55-.17-.55-.55l-.06-13.81c0-.27.21-.48.48-.48h2.23c.27,0,.48.21.48.48v11.33h3.58v-11.33c0-.27.21-.48.48-.48h2.15c.27,0,.48.21.48.48v11.33h1.22c1.39,0,2.48-.67,2.48-2.9v-8.43c0-.27.21-.48.48-.48h2.21c.27,0,.48.21.48.48Z"/>
          <path class="cls-1" d="M283.5,136.71c0-.27.21-.48.48-.48h10.3c1.52,0,2.63.88,2.63,2.46,0,.31-.15.97-.23,1.3l-3.22,10.63c-.06.21-.25.44-.5.44h-2.44c-.27,0-.42-.17-.42-.44v-.08l3.22-10.49c.15-.42-.02-.71-.48-.71h-8.84c-.27,0-.48-.21-.48-.48v-2.14ZM283.6,143.07c0-.27.21-.48.48-.48h2.3c.27,0,.48.21.48.48v11.18c0,.27-.21.48-.48.48h-2.3c-.27,0-.48-.21-.48-.48v-11.18Z"/>
          <path class="cls-1" d="M312.53,136.73v8.55c0,3.89-2.17,5.97-5.39,5.97h-1.39c-1.81,0-3.24-.29-4.59-1.45-1.03-.88-1.56-2.48-1.58-4.62l-.08-8.47c0-.27.21-.48.48-.48h11.98c.38,0,.57.19.57.5ZM309.31,145.2l-.04-5.91h-6.46l.06,5.74c.02,2.25,1.14,3.13,3.12,3.13h.65c1.66,0,2.67-.86,2.67-2.96Z"/>
          <path class="cls-1" d="M327.79,136.71v8.76c0,3.49-2.19,5.59-5.47,5.59h-6.89c-.27,0-.48-.21-.48-.48v-2.12c0-.29.21-.5.48-.5h2.93l-3.22-11.05c-.1-.32.02-.67.38-.67h2.4c.27,0,.44.19.53.46l3.24,11.26h.48c1.45,0,2.42-.71,2.42-2.61v-8.64c0-.27.21-.48.48-.48h2.23c.27,0,.48.21.48.48Z"/>
        </g>
      </g>
    </g>
  </g>
</svg>