<?xml version="1.0" encoding="UTF-8"?>
<svg id="Group_7" data-name="Group 7" xmlns="http://www.w3.org/2000/svg" xmlns:xlink="http://www.w3.org/1999/xlink" viewBox="0 0 480 192">
  <defs>
    <style>
      .cls-1 {
        fill: #0c2542;
      }

      .cls-2 {
        fill: url(#linear-gradient-2);
      }

      .cls-3 {
        fill: url(#linear-gradient);
      }
    </style>
    <linearGradient id="linear-gradient" x1="317.21" y1="96.2" x2="382.65" y2="96.2" gradientUnits="userSpaceOnUse">
      <stop offset=".01" stop-color="#0992c2"/>
      <stop offset="1" stop-color="#5b99c3"/>
    </linearGradient>
    <linearGradient id="linear-gradient-2" x1="385.79" y1="96.7" x2="441.43" y2="96.7" gradientUnits="userSpaceOnUse">
      <stop offset="0" stop-color="#bf092f"/>
      <stop offset="1" stop-color="#911220"/>
    </linearGradient>
  </defs>
  <path class="cls-3" d="M382.61,57.53c0-3.57.01-7.13-.32-10.68-.12-1.26-.26-2.51-.77-3.67-1.9-4.38-5.08-6.91-8.98-7.96-4.84-1.31-9.12.5-12.79,4.35-.29.31-.52.33-.84.14-.35-.2-5.27-.24-9.43,1.8-2.98,1.46-5.48,3.84-6.91,5.88-.26.37-.4.55-.81.66-2.08.53-4.54,1.81-6.32,3.69-2.3,2.43-3.73,5.54-4.29,9.16-.13.86-.43,1.74-1.24,1.92-2.18.5-4.94,2.83-6.16,5.01-1.53,2.73-1.74,5.97-1.22,9.34.14.94-.21,1.57-.77,2.23-.55.66-.99,1.42-1.53,2.11-2.57,3.28-3.81,8.08-2.52,12.66.58,2.05,1.13,4.12.22,6.26-.16.37-.25.79-.3,1.2-.82,6.12.53,11.46,4.1,16.02.52.66,1.09,1.31,1.39,2.16.34.94.23,2.08.39,3.08.66,4.41,2.76,8.47,5.72,11.25,1.4,1.32,2.99,2.36,4.65,3.17.52.25.82.62,1.09,1.26.88,2.05,3.88,6.51,7.16,8.62,2.02,1.3,3.88,2.47,6.11,2.65.77.06,1.36.27,1.89.94,1.25,1.6,2.75,2.75,4.43,3.61,4.97,2.54,11.08,3.57,14.57,3.04,1.83-.28,4.95-1.33,6.79-3,4.55-4.13,6.59-9.94,6.42-16.76.02-.25.06-.5.06-.75.09-15.21-.07-30.42.17-45.63.17-11.26.04-22.53.05-33.79M377.25,58.94c0,1.84-1.53,3.16-3.01,2.58-3.11-1.21-5.71-4-6.76-7.83-1.09-3.97-6.42-2.27-5.33,1.73,1.7,6.17,6.07,11,11.28,12.67,2.23.71,3.8,3.05,3.79,5.78,0,2.15,0,.32,0,2.61,0,2.08-1.4,3.75-3.16,3.86-2.56.16-5.11,1.35-7.19,3.14-3.99,3.43-7.64,9.37-12.04,12.17-3.14,2-6.71,3.51-9.51-.29-1.48-2.01-3.59-4.9-4.82-7.09-1.32-2.34-3.12-4.31-5.53-4.84-3.47-.77-4.96,5.51-1.47,6.28.02,0,.03,0,.05.01,1.69.41,2.04,3.03.61,4.16-3.03,2.39-4.97,6.66-4.59,11.03.15,1.75,1.16,3.26,2.76,3.26,1.38,0,2.92-1.5,2.76-3.26-.32-3.59,1.46-5.25,2.82-6.01.79-.44,1.72-.31,2.42.31.33.3.68.6,1.05.92,2.27,1.97,5.04,2.49,7.73,3.67,2.55,1.11,4.36,5.46,5.83,5.13,1.27-.28,2.23-6.32,3.33-8.13,6.31-10.39,11.92-12.99,15.36-13.43,1.92-.24,3.58,1.56,3.58,3.84,0,7.38-.01,18.59-.02,24.37,0,2.87-3.19,4.05-4.53,1.65-.01-.02-.03-.04-.04-.07-.85-1.68-1.19-5.28-.91-6.64.78-3.82-4.21-5.45-4.99-1.62-.41,2-.46,3.99-.21,5.87.23,1.73-.49,3.44-1.82,4.21-2.4,1.39-5.51,1.61-7.93,1.39-3.46-.32-6.73-1.92-9.42-4.43-.71-.96-1.54-1.84-2.47-2.59-2.5-2.02-5.08,2.35-3.14,4.79.71.9,1.47,1.72,2.28,2.48,1.85,2.97,1.74,7.04-.15,10.24-1.91,3.23,2.58,6.29,4.47,3.08.93-1.57,1.56-3.27,1.9-4.99.4-2.05,2.15-3.28,3.9-2.89,1.04.23,2.09.38,3.14.45,3.4.22,7.5-.51,10.68-2.66,1.02-.69,2.28-.57,3.21.29,1.23,1.14,2.65,2.01,4.22,2.54,1.06.35,1.8,1.46,1.82,2.76.05,2.96.12,6.05-.44,9.08-1.49,7.98-8.07,13.26-14.83,11.91-1.84-.37-3.54-1.04-5.13-1.99-1.32-.78-1.79-2.71-1.11-4.25.55-1.23,1.19-2.39,2.07-3.27,1.09-1.08,3.04-1.14,5.01-.44,1.8.64,2.42,2.93,2.22,4.24-.25,1.62.37,3.29,1.81,3.76,1.26.4,2.94-.5,3.19-2.13.18-1.19.21-2.38.09-3.53-.1-.98.25-1.94.94-2.5,1.06-.86,1.93-2.04,2.47-3.43.59-1.51.36-3.27-.93-4.18-1.11-.78-2.96-.4-3.54,1.09-.84,2.15-2.19,2.13-3.88,1.28-2.09-1.06-3.96-1.92-6.29-1.42-3.5.75-5.78,3.77-7.43,7.22-.43.9-1.21,1.51-2.08,1.63h-.01c-3.73.53-6.66-1.28-9.03-4.52-.97-1.33-1.68-2.85-1.93-4.63-.12-.86-.46-1.47-1.34-1.74-4.64-1.4-7.53-4.94-8.77-10.36-.25-1.09-.3-2.22-.14-3.35.14-1.04-.21-1.68-.97-2.3-1.93-1.58-3.34-3.72-4.12-6.36-1.04-3.56-.98-7.06.56-10.44.21-.47.31-.97.14-1.46-.39-1.14-.87-2.29-1.1-3.51-.25-1.32-.13-2.78-.05-4.12.01-.2.04-.51.08-.7.07-.35.15-.7.24-1.04.23-.81.55-1.6.94-2.32.82-1.52,2.01-2.6,3.3-3.53.55-.39.35-.93.31-1.44-.19-2.64.1-5.14,1.19-7.53,1.17-2.55,3.04-4.07,5.17-5.23.79-.43,1.11-.96,1.12-2.02.03-4.6,2.13-7.76,5.41-9.84.97-.62,2.12-1.07,3.28-1.16,5.11-.39,2.4,4.34,2.49,7.18.03.98.48,1.81.96,2.6.33.53.19,1.27-.27,1.63-3.19,2.53-5.23,6.87-5.1,11.57.12,4.18,5.64,4.2,5.52,0-.08-2.94,1.09-4.74,2.26-5.8,1.1-.99,2.62-1.03,3.75-.09.99.83,2.02,1.61,3.04,2.37,3.02,2.23,5.8-3.4,2.79-5.62-2.82-2.08-6.11-4.36-7.53-8.1-.29-.76-.29-1.9-.09-3.23.79-5.47,4.32-9.77,8.84-11.32.52-.18,1.09-.45,1.71-.83.2-.12.38-.28.58-.41.29-.19.59-.37.89-.53,1.66-.87,3.43-1.22,5.34-1.14,1.73.07,3.23.77,4.66,1.63,1.24.76,2.26,2.09,2.86,3.59.6,1.48.96,3.08.95,4.82,0,.99-.02,2.99-.02,5.71"/>
  <path class="cls-2" d="M411.27,94.2s.04-.04.07-.06c0,.07-.01.15-.02.22-.02-.05-.04-.11-.05-.16M439.66,116.18l1.71-6.36c.26-.98-.32-1.99-1.3-2.25l-5.22-1.4c-1.57-.42-2.58-1.92-2.41-3.54.2-1.87.31-3.75.31-5.65s-.11-3.9-.32-5.81c-.18-1.61.83-3.12,2.4-3.54l5.22-1.42c.98-.27,1.56-1.28,1.29-2.26l-1.73-6.35c-.27-.98-1.28-1.56-2.26-1.29l-5.23,1.42c-1.56.43-3.2-.36-3.86-1.84-1.57-3.51-3.52-6.82-5.8-9.87-.97-1.3-.86-3.11.28-4.27l4.07-3.91c.71-.72.7-1.89-.02-2.6l-4.53-4.8c-.72-.71-1.89-.7-2.6.02l-4.23,4.09c-1.14,1.16-2.95,1.3-4.27.35-3.09-2.22-6.43-4.12-9.97-5.63-1.49-.64-2.3-2.26-1.9-3.83l1.47-6.18c.25-.98-.35-1.98-1.33-2.23l-6.35-1.74c-.98-.25-1.98.35-2.23,1.33l-1.49,6.26c-.4,1.59-1.9,2.64-3.53,2.49h-.03s0,12.5,0,12.5c19.44,2.4,34.54,19.02,34.54,39.1,0,9.88-3.67,19.33-10.34,26.6-6.36,6.95-14.92,11.36-24.2,12.49v12.5h0c.06,0,.13-.01.19-.02,1.62-.16,3.11.87,3.52,2.45l1.41,5.78c.25.98,1.25,1.58,2.24,1.32l6.38-1.64c.98-.25,1.58-1.25,1.32-2.24l-1.4-5.77c-.4-1.57.4-3.2,1.9-3.83,3.51-1.51,6.85-3.4,9.96-5.65,1.31-.95,3.12-.81,4.27.34l3.8,3.85c.71.72,1.88.73,2.6.01l4.68-4.63c.72-.71.73-1.88.01-2.6l-3.8-3.85c-1.14-1.15-1.26-2.97-.3-4.27,2.29-3.09,4.22-6.41,5.77-9.9.66-1.48,2.29-2.27,3.86-1.85l5.22,1.4c.98.26,1.99-.32,2.25-1.3M411.34,96.96c0-14.73-10.5-27.35-24.96-30.02l-.59-.11v6.68c11.05,2.33,18.99,12.09,18.99,23.45s-7.95,21.12-18.99,23.45v6.68l.59-.11c14.46-2.66,24.96-15.29,24.96-30.01"/>
  <g>
    <path class="cls-1" d="M38.33,77.26c0-.71.54-1.25,1.25-1.25h10.06c.71,0,1.25.54,1.25,1.25v19.66c0,.71-.54,1.25-1.25,1.25h-10.06c-.71,0-1.25-.54-1.25-1.25v-19.66Z"/>
    <path class="cls-1" d="M88,86.98v26.13c0,.71-.54,1.25-1.25,1.25h-10.06c-.71,0-1.2-.54-1.2-1.25v-21.73c0-2.72-1.47-3.31-2.61-3.31h-7.4v25.04c0,.71-.54,1.25-1.25,1.25h-10.06c-.71,0-1.25-.54-1.25-1.25v-35.85c0-.71.54-1.25,1.25-1.25h22.9c6.58,0,10.93,5.32,10.93,10.97Z"/>
    <path class="cls-1" d="M90.01,77.26c0-.71.54-1.25,1.25-1.25h10.06c.71,0,1.25.54,1.25,1.25v35.85c0,.71-.54,1.25-1.25,1.25h-10.06c-.71,0-1.25-.54-1.25-1.25v-35.85Z"/>
    <path class="cls-1" d="M104.75,77.26c0-.71.54-1.25,1.25-1.25h10.06c.71,0,1.25.54,1.25,1.25v35.85c0,.71-.54,1.25-1.25,1.25h-10.06c-.71,0-1.25-.54-1.25-1.25v-35.85Z"/>
    <path class="cls-1" d="M118.94,77.26c0-.71.54-1.25,1.25-1.25h16.81c7.67,0,12.57,3.69,12.57,13.15v23.96c0,.71-.54,1.25-1.25,1.25h-10.06c-.71,0-1.2-.54-1.2-1.25v-21.73c0-2.72-1.47-3.31-2.61-3.31h-14.09c-.71,0-1.41-.76-1.41-1.47v-9.34Z"/>
    <path class="cls-1" d="M196.35,82.75c0,1.03-.33,2.5-.82,4.07l-8.27,26.18c-.27.76-.92,1.36-1.74,1.36h-10.61c-.71,0-1.2-.54-1.2-1.25,0-.11,0-.27.05-.38l.05-.11,7.89-24.34c.05-.11,0-.22-.11-.22h-16.92c-.71,0-1.25-.54-1.25-1.25v-17.44c0-.71.54-1.25,1.25-1.25h9.9c.71,0,1.25.54,1.25,1.25v6.63l13.6-.05c3.81,0,6.91,2.72,6.91,6.79Z"/>
    <path class="cls-1" d="M197.59,77.26c0-.71.54-1.25,1.25-1.25h10.06c.71,0,1.25.54,1.25,1.25v19.66c0,.71-.54,1.25-1.25,1.25h-10.06c-.71,0-1.25-.54-1.25-1.25v-19.66Z"/>
    <path class="cls-1" d="M212.01,77.26c0-.71.54-1.25,1.25-1.25h10.06c.71,0,1.25.54,1.25,1.25v19.66c0,.71-.54,1.25-1.25,1.25h-10.06c-.71,0-1.25-.54-1.25-1.25v-19.66Z"/>
    <path class="cls-1" d="M226.53,77.26c0-.71.54-1.25,1.25-1.25h27.91c3.92,0,7.29,2.88,7.29,7.22,0,.81-.16,2.17-.38,3.04l-7.13,26.94c-.16.54-.65,1.14-1.31,1.14h-10.55c-.71,0-1.09-.43-1.09-1.14v-.22l6.47-24.55c.05-.22,0-.38-.22-.38h-21c-.71,0-1.25-.54-1.25-1.25v-9.56ZM226.53,94.37c0-.71.54-1.25,1.25-1.25h10.06c.71,0,1.25.54,1.25,1.25v28.25c0,.71-.54,1.25-1.25,1.25h-10.06c-.71,0-1.25-.54-1.25-1.25v-28.25Z"/>
    <path class="cls-1" d="M299.2,77.31v22.6c0,9.78-5.33,14.94-14.09,14.94h-4.51c-4.68,0-8.98-.65-12.46-3.69-2.67-2.34-3.75-6.46-3.81-11.46l-.22-22.43c0-.71.54-1.25,1.25-1.25h32.37c.98,0,1.47.49,1.47,1.3ZM286.86,99.53l-.11-11.62h-9.95l.16,11.08c.05,3.37,1.79,4.13,4.73,4.13h1.52c2.07,0,3.64-.87,3.64-3.58Z"/>
  </g>
</svg>