<?xml version="1.0" encoding="UTF-8"?>
<svg id="Group_7" data-name="Group 7" xmlns="http://www.w3.org/2000/svg" xmlns:xlink="http://www.w3.org/1999/xlink" viewBox="0 0 480 335.48">
  <defs>
    <style>
      .cls-1 {
        fill: #0c2542;
      }

      .cls-2 {
        fill: url(#linear-gradient-2);
      }

      .cls-3 {
        fill: url(#linear-gradient);
      }

      .cls-4 {
        fill: #22221e;
      }
    </style>
    <linearGradient id="linear-gradient" x1="81.15" y1="116.06" x2="81.67" y2="116.06" gradientUnits="userSpaceOnUse">
      <stop offset=".01" stop-color="#0992c2"/>
      <stop offset="1" stop-color="#5b99c3"/>
    </linearGradient>
    <linearGradient id="linear-gradient-2" x1="248.31" y1="116.71" x2="319.86" y2="116.71" gradientUnits="userSpaceOnUse">
      <stop offset="0" stop-color="#bf092f"/>
      <stop offset="1" stop-color="#911220"/>
    </linearGradient>
  </defs>
  <g>
    <g>
      <path class="cls-4" d="M348.02,232.44l.16,11.08c.05,3.37,1.79,4.13,4.73,4.13h1.52c2.07,0,3.64-.87,3.64-3.58l-.11-11.62h-9.95Z"/>
      <path class="cls-1" d="M368.49,213.37h-121.56c.08.17.14.35.14.56v6.63l13.6-.05c3.81,0,6.91,2.72,6.91,6.79,0,1.03-.33,2.5-.82,4.07l-8.27,26.18c-.27.76-.92,1.36-1.74,1.36h-10.61c-.71,0-1.2-.54-1.2-1.25,0-.11,0-.27.05-.38l.05-.11,7.89-24.34c.05-.11,0-.22-.11-.22h-16.92c-.71,0-1.25-.54-1.25-1.25v-17.44c0-.2.06-.39.14-.56h-123.3c-8.98,0-16.26,7.28-16.26,16.26v21.13c0,8.98,7.28,16.26,16.26,16.26h186.26v-28.1c0-.71.54-1.25,1.25-1.25h10.06c.71,0,1.25.54,1.25,1.25v28.1h58.16c8.98,0,16.26-7.28,16.26-16.26v-21.13c0-8.98-7.28-16.26-16.26-16.26ZM122.13,241.46c0,.71-.54,1.25-1.25,1.25h-10.06c-.71,0-1.25-.54-1.25-1.25v-19.66c0-.71.54-1.25,1.25-1.25h10.06c.71,0,1.25.54,1.25,1.25v19.66ZM159.23,257.65c0,.71-.54,1.25-1.25,1.25h-10.06c-.71,0-1.2-.54-1.2-1.25v-21.73c0-2.72-1.47-3.31-2.61-3.31h-7.4v25.04c0,.71-.54,1.25-1.25,1.25h-10.06c-.71,0-1.25-.54-1.25-1.25v-35.85c0-.71.54-1.25,1.25-1.25h22.9c6.58,0,10.93,5.32,10.93,10.97v26.13ZM173.8,257.65c0,.71-.54,1.25-1.25,1.25h-10.06c-.71,0-1.25-.54-1.25-1.25v-35.85c0-.71.54-1.25,1.25-1.25h10.06c.71,0,1.25.54,1.25,1.25v35.85ZM188.54,257.65c0,.71-.54,1.25-1.25,1.25h-10.06c-.71,0-1.25-.54-1.25-1.25v-35.85c0-.71.54-1.25,1.25-1.25h10.06c.71,0,1.25.54,1.25,1.25v35.85ZM220.8,257.65c0,.71-.54,1.25-1.25,1.25h-10.06c-.71,0-1.2-.54-1.2-1.25v-21.73c0-2.72-1.47-3.31-2.61-3.31h-14.09c-.71,0-1.41-.76-1.41-1.47v-9.34c0-.71.54-1.25,1.25-1.25h16.81c7.67,0,12.57,3.69,12.57,13.15v23.96ZM281.39,241.46c0,.71-.54,1.25-1.25,1.25h-10.06c-.71,0-1.25-.54-1.25-1.25v-19.66c0-.71.54-1.25,1.25-1.25h10.06c.71,0,1.25.54,1.25,1.25v19.66ZM295.81,241.46c0,.71-.54,1.25-1.25,1.25h-10.06c-.71,0-1.25-.54-1.25-1.25v-19.66c0-.71.54-1.25,1.25-1.25h10.06c.71,0,1.25.54,1.25,1.25v19.66ZM333.83,230.82l-7.13,26.94c-.16.54-.65,1.14-1.31,1.14h-10.55c-.71,0-1.09-.43-1.09-1.14v-.22l6.47-24.55c.05-.22,0-.38-.22-.38h-21c-.71,0-1.25-.54-1.25-1.25v-9.56c0-.71.54-1.25,1.25-1.25h27.91c3.92,0,7.29,2.88,7.29,7.22,0,.81-.16,2.17-.38,3.04ZM370.43,244.45c0,9.78-5.33,14.94-14.09,14.94h-4.51c-4.68,0-8.98-.65-12.46-3.69-2.67-2.34-3.75-6.46-3.81-11.46l-.22-22.43c0-.71.54-1.25,1.25-1.25h32.37c.98,0,1.47.49,1.47,1.3v22.6Z"/>
    </g>
    <g>
      <path class="cls-1" d="M185.62,283.78v6.67c0,2.88-1.61,4.33-4.29,4.33h-8.1c-.26,0-.42-.13-.42-.42l-.05-10.58c0-.21.16-.37.37-.37h1.71c.21,0,.37.16.37.37v8.68h2.74v-8.68c0-.21.16-.37.37-.37h1.65c.21,0,.37.16.37.37v8.68h.94c1.06,0,1.9-.51,1.9-2.22v-6.46c0-.21.16-.37.37-.37h1.69c.21,0,.37.16.37.37Z"/>
      <path class="cls-1" d="M197.24,287.52v2.82c0,2.9-1.56,4.44-4.02,4.44h-4.77c-.21,0-.37-.16-.37-.37v-1.63c0-.21.16-.37.37-.37h4.35c1.24,0,1.95-.63,1.95-2.19l-.02-2.43c-.02-1.5-.85-2.09-1.92-2.09h-2.27v3.51c0,.21-.15.37-.35.37h-1.76c-.21,0-.37-.16-.37-.37v-5.42c0-.21.16-.37.37-.37h4.82c2.35,0,3.98,1.21,3.98,4.11Z"/>
      <path class="cls-1" d="M199.43,283.78c0-.21.16-.37.37-.37h1.76c.21,0,.37.16.37.37v10.62c0,.21-.16.37-.37.37h-1.76c-.21,0-.37-.16-.37-.37v-10.62Z"/>
      <path class="cls-1" d="M214.18,286.99v7.42c0,.21-.16.37-.37.37h-1.76c-.21,0-.35-.16-.35-.37v-6.75c0-1.22-.66-1.87-1.48-1.87h-3.29v8.61c0,.21-.16.37-.37.37h-1.76c-.21,0-.37-.16-.37-.37v-10.62c0-.21.16-.37.37-.37h6.06c2.13,0,3.32,1.64,3.32,3.57Z"/>
      <path class="cls-1" d="M221.18,283.78c0-.21.18-.37.39-.37h4.73c2.29,0,3.56,1.4,3.56,3.9v7.1c0,.21-.16.37-.37.37h-1.76c-.21,0-.35-.16-.35-.37v-6.75c0-1.22-.66-1.87-1.48-1.87h-4.31c-.21,0-.4-.19-.4-.4v-1.61Z"/>
      <path class="cls-1" d="M239.67,286.39c-.29.39-.39,1.05-.34,2.21.05,1.3.03,1.67.21,1.92l1.42,2.09c.18.27.21.4.21.66v1.09c0,.26-.16.42-.4.42h-8.5c-.21,0-.37-.16-.37-.37v-1.59c0-.21.16-.39.37-.39h5.74l-4.03-5.38c-.6-.79-1.03-1.13-1.48-1.13h-.29c-.21,0-.37-.19-.37-.4v-1.69c0-.21.16-.42.39-.42h1.02c.92,0,1.53.6,2.23,1.56l2.44,3.33.05-.05c-.13-.18-.27-.58-.27-1v-.97c-.02-.64.1-1.27.42-1.77.45-.71,1.13-1.08,1.98-1.08h.74c.21,0,.39.18.39.39v1.64c0,.26-.06.4-.27.4h-.21c-.21,0-.71.03-1.05.52Z"/>
      <path class="cls-1" d="M243.3,283.78c0-.21.16-.37.37-.37h1.76c.21,0,.37.16.37.37v10.62c0,.21-.16.37-.37.37h-1.76c-.21,0-.37-.16-.37-.37v-10.62Z"/>
      <path class="cls-1" d="M248.23,283.78c0-.21.16-.37.37-.37h1.76c.21,0,.37.16.37.37v5.83c0,.21-.16.37-.37.37h-1.76c-.21,0-.37-.16-.37-.37v-5.83Z"/>
      <path class="cls-1" d="M266.02,283.78v6.67c0,2.88-1.61,4.33-4.29,4.33h-8.1c-.26,0-.42-.13-.42-.42l-.05-10.58c0-.21.16-.37.37-.37h1.71c.21,0,.37.16.37.37v8.68h2.74v-8.68c0-.21.16-.37.37-.37h1.65c.21,0,.37.16.37.37v8.68h.93c1.07,0,1.9-.51,1.9-2.22v-6.46c0-.21.16-.37.37-.37h1.69c.21,0,.37.16.37.37Z"/>
      <path class="cls-1" d="M273.31,283.78c0-.21.16-.37.37-.37h7.89c1.16,0,2.02.68,2.02,1.88,0,.24-.11.74-.18,1l-2.47,8.15c-.05.16-.19.34-.39.34h-1.87c-.21,0-.32-.13-.32-.34v-.06l2.47-8.03c.11-.32-.02-.55-.37-.55h-6.77c-.21,0-.37-.16-.37-.37v-1.64ZM273.4,288.66c0-.21.16-.37.37-.37h1.76c.21,0,.37.16.37.37v8.56c0,.21-.16.37-.37.37h-1.76c-.21,0-.37-.16-.37-.37v-8.56Z"/>
      <path class="cls-1" d="M295.55,283.8v6.55c0,2.98-1.66,4.57-4.13,4.57h-1.06c-1.39,0-2.48-.22-3.52-1.11-.79-.68-1.19-1.9-1.21-3.54l-.06-6.49c0-.21.16-.37.37-.37h9.18c.29,0,.44.14.44.39ZM293.08,290.29l-.03-4.52h-4.95l.05,4.39c.02,1.72.87,2.4,2.39,2.4h.5c1.27,0,2.05-.66,2.05-2.27Z"/>
      <path class="cls-1" d="M307.24,283.78v6.71c0,2.67-1.68,4.28-4.19,4.28h-5.27c-.21,0-.37-.16-.37-.37v-1.63c0-.23.16-.39.37-.39h2.24l-2.47-8.47c-.08-.24.02-.52.29-.52h1.84c.21,0,.34.14.4.35l2.48,8.63h.37c1.11,0,1.86-.55,1.86-2v-6.62c0-.21.16-.37.37-.37h1.71c.21,0,.37.16.37.37Z"/>
    </g>
  </g>
  <g>
    <path class="cls-3" d="M244.23,66.35c0-4.58.01-9.17-.41-13.73-.15-1.62-.34-3.23-.98-4.72-2.44-5.63-6.54-8.88-11.54-10.23-6.22-1.68-11.73.64-16.45,5.59-.38.39-.67.42-1.08.18-.45-.26-6.77-.31-12.12,2.32-3.83,1.88-7.05,4.94-8.88,7.57-.33.48-.52.71-1.04.84-2.67.68-5.84,2.32-8.13,4.75-2.95,3.12-4.79,7.12-5.51,11.78-.17,1.1-.55,2.24-1.6,2.47-2.8.64-6.35,3.64-7.91,6.44-1.97,3.51-2.23,7.67-1.57,12.01.18,1.21-.27,2.02-.99,2.87-.71.85-1.27,1.83-1.97,2.72-3.3,4.22-4.9,10.38-3.24,16.28.74,2.63,1.46,5.29.28,8.05-.2.48-.32,1.02-.39,1.55-1.06,7.87.68,14.73,5.27,20.6.67.85,1.4,1.69,1.79,2.78.43,1.21.3,2.67.5,3.97.85,5.67,3.55,10.89,7.36,14.47,1.81,1.7,3.84,3.03,5.97,4.07.67.32,1.05.8,1.41,1.62,1.14,2.63,4.99,8.37,9.21,11.08,2.6,1.67,4.98,3.18,7.85,3.41.99.08,1.75.35,2.43,1.21,1.61,2.05,3.53,3.53,5.69,4.64,6.39,3.27,14.25,4.59,18.73,3.91,2.35-.36,6.37-1.71,8.73-3.85,5.86-5.31,8.48-12.78,8.25-21.55.03-.32.08-.64.08-.97.11-19.55-.08-39.11.22-58.66.22-14.48.05-28.96.06-43.44M237.34,68.16c0,2.36-1.97,4.06-3.87,3.32-3.99-1.55-7.34-5.14-8.69-10.07-1.4-5.11-8.26-2.92-6.85,2.22,2.18,7.94,7.8,14.14,14.5,16.29,2.86.92,4.88,3.93,4.88,7.43,0,2.76,0,.41,0,3.35,0,2.67-1.8,4.82-4.06,4.96-3.29.21-6.57,1.74-9.25,4.04-5.13,4.41-9.82,12.04-15.48,15.64-4.04,2.57-8.62,4.52-12.22-.37-1.9-2.58-4.61-6.29-6.2-9.12-1.69-3-4.01-5.55-7.1-6.22-4.46-.98-6.38,7.08-1.89,8.07.02,0,.04.01.07.02,2.17.53,2.62,3.9.78,5.35-3.89,3.07-6.39,8.56-5.9,14.18.2,2.24,1.49,4.19,3.55,4.19,1.77,0,3.75-1.93,3.55-4.19-.41-4.61,1.87-6.75,3.62-7.73,1.02-.57,2.22-.4,3.11.4.43.38.88.77,1.36,1.19,2.92,2.53,6.48,3.21,9.94,4.71,3.28,1.43,5.61,7.02,7.49,6.6,1.63-.36,2.87-8.13,4.28-10.45,8.12-13.36,15.32-16.71,19.75-17.26,2.47-.31,4.6,2.01,4.6,4.93,0,9.49-.02,23.91-.02,31.33,0,3.69-4.1,5.2-5.82,2.12-.02-.03-.03-.06-.05-.09-1.09-2.16-1.53-6.79-1.17-8.54,1-4.91-5.42-7-6.42-2.09-.53,2.57-.59,5.13-.26,7.55.3,2.23-.63,4.42-2.34,5.41-3.09,1.78-7.08,2.07-10.2,1.78-4.44-.41-8.66-2.47-12.11-5.7-.92-1.24-1.98-2.36-3.18-3.33-3.21-2.6-6.54,3.02-4.03,6.16.91,1.15,1.9,2.21,2.93,3.19,2.37,3.82,2.24,9.05-.2,13.17-2.45,4.15,3.31,8.08,5.75,3.96,1.2-2.02,2-4.2,2.44-6.42.52-2.63,2.77-4.22,5.02-3.71,1.33.3,2.68.49,4.04.58,4.37.28,9.64-.66,13.74-3.42,1.31-.89,2.93-.74,4.12.37,1.58,1.47,3.41,2.59,5.43,3.26,1.36.45,2.32,1.88,2.35,3.54.07,3.81.16,7.77-.57,11.67-1.91,10.26-10.38,17.05-19.06,15.31-2.37-.47-4.55-1.34-6.6-2.56-1.69-1.01-2.31-3.48-1.43-5.46.7-1.58,1.52-3.08,2.66-4.2,1.4-1.39,3.91-1.47,6.44-.57,2.31.82,3.11,3.76,2.86,5.45-.32,2.08.48,4.23,2.32,4.83,1.62.52,3.78-.65,4.1-2.74.23-1.53.27-3.06.12-4.54-.13-1.26.32-2.5,1.21-3.22,1.36-1.1,2.48-2.62,3.18-4.41.75-1.94.46-4.2-1.19-5.37-1.42-1-3.81-.52-4.55,1.41-1.07,2.77-2.82,2.74-4.98,1.64-2.69-1.36-5.09-2.46-8.08-1.83-4.5.96-7.43,4.85-9.55,9.28-.56,1.16-1.55,1.94-2.68,2.1h-.02c-4.8.68-8.56-1.64-11.61-5.81-1.25-1.71-2.16-3.66-2.48-5.95-.16-1.11-.59-1.89-1.72-2.23-5.96-1.8-9.68-6.36-11.28-13.32-.32-1.4-.38-2.86-.18-4.31.18-1.33-.27-2.16-1.24-2.95-2.48-2.04-4.3-4.78-5.29-8.17-1.34-4.57-1.27-9.08.71-13.43.27-.6.4-1.25.19-1.87-.5-1.46-1.12-2.95-1.42-4.51-.32-1.7-.16-3.58-.06-5.3.01-.25.06-.66.1-.9.09-.45.19-.9.31-1.34.3-1.05.71-2.05,1.21-2.98,1.06-1.95,2.58-3.34,4.24-4.54.7-.5.45-1.2.4-1.85-.24-3.39.12-6.61,1.53-9.68,1.5-3.28,3.9-5.24,6.65-6.73,1.02-.55,1.43-1.23,1.44-2.6.04-5.92,2.74-9.97,6.96-12.65,1.24-.8,2.72-1.37,4.22-1.49,6.57-.51,3.09,5.58,3.2,9.23.04,1.26.62,2.33,1.24,3.35.42.68.25,1.63-.35,2.1-4.11,3.26-6.73,8.84-6.56,14.87.16,5.37,7.26,5.4,7.1,0-.11-3.78,1.4-6.1,2.91-7.46,1.41-1.27,3.37-1.33,4.82-.11,1.27,1.06,2.59,2.07,3.91,3.04,3.88,2.87,7.45-4.37,3.58-7.23-3.62-2.68-7.86-5.6-9.68-10.41-.37-.97-.37-2.44-.12-4.15,1.01-7.04,5.55-12.55,11.36-14.56.67-.23,1.4-.58,2.2-1.06.26-.16.49-.36.75-.52.38-.25.76-.48,1.14-.68,2.13-1.11,4.41-1.57,6.87-1.47,2.22.09,4.16.98,5.99,2.1,1.6.97,2.9,2.69,3.68,4.62.77,1.9,1.24,3.97,1.22,6.2,0,1.27-.02,3.84-.03,7.35"/>
    <path class="cls-2" d="M281.08,113.49s.06-.05.09-.08c0,.1-.01.19-.02.29-.02-.07-.06-.14-.07-.21M317.58,141.75l2.2-8.17c.34-1.26-.41-2.56-1.67-2.9l-6.71-1.81c-2.01-.54-3.32-2.47-3.09-4.55.26-2.4.39-4.83.39-7.27s-.14-5.02-.42-7.47c-.23-2.07,1.07-4.01,3.08-4.55l6.71-1.83c1.26-.34,2-1.64,1.66-2.9l-2.22-8.17c-.34-1.26-1.64-2-2.9-1.66l-6.72,1.83c-2.01.55-4.11-.46-4.96-2.36-2.02-4.52-4.53-8.77-7.46-12.69-1.25-1.67-1.1-4,.36-5.49l5.23-5.02c.91-.93.9-2.43-.03-3.34l-5.83-6.17c-.93-.91-2.43-.9-3.34.03l-5.44,5.26c-1.46,1.49-3.79,1.68-5.49.46-3.97-2.86-8.26-5.3-12.82-7.24-1.92-.82-2.96-2.9-2.45-4.92l1.88-7.94c.32-1.27-.44-2.55-1.71-2.87l-8.16-2.24c-1.27-.32-2.55.45-2.87,1.71l-1.92,8.05c-.52,2.04-2.44,3.4-4.54,3.2h-.04s0,16.06,0,16.06c24.99,3.08,44.4,24.45,44.4,50.26,0,12.7-4.72,24.85-13.29,34.2-8.18,8.93-19.18,14.6-31.11,16.06v16.07h0c.08,0,.16-.02.24-.02,2.08-.2,4,1.12,4.52,3.15l1.81,7.43c.32,1.26,1.61,2.03,2.88,1.7l8.2-2.1c1.26-.32,2.03-1.61,1.7-2.88l-1.81-7.42c-.52-2.02.52-4.11,2.44-4.93,4.52-1.94,8.81-4.37,12.81-7.27,1.69-1.23,4.02-1.04,5.48.44l4.89,4.94c.92.93,2.41.94,3.34.02l6.02-5.95c.93-.92.94-2.41.02-3.34l-4.89-4.95c-1.47-1.48-1.62-3.81-.38-5.49,2.95-3.98,5.43-8.24,7.41-12.73.84-1.91,2.94-2.92,4.96-2.38l6.71,1.8c1.26.34,2.56-.41,2.9-1.67M281.17,117.04c0-18.93-13.49-35.17-32.09-38.59l-.76-.14v8.59c14.2,2.99,24.42,15.54,24.42,30.15s-10.22,27.15-24.42,30.15v8.58l.76-.14c18.59-3.43,32.09-19.66,32.09-38.59"/>
  </g>
</svg>